HIERARCHY
ROOT Hips
{
	OFFSET 0.000000 0.000000 0.000000
	CHANNELS 6 Xposition Yposition Zposition Zrotation Yrotation Xrotation 
	JOINT LHipJoint
	{
		OFFSET 0.000000 0.000000 0.000000
		CHANNELS 3 Zrotation Yrotation Xrotation
		JOINT LeftUpLeg
		{
			OFFSET 1.363060 -1.794630 0.839290
			CHANNELS 3 Zrotation Yrotation Xrotation
			JOINT LeftLeg
			{
				OFFSET 2.448110 -6.726130 0.000000
				CHANNELS 3 Zrotation Yrotation Xrotation
				JOINT LeftFoot
				{
					OFFSET 2.562200 -7.039590 0.000000
					CHANNELS 3 Zrotation Yrotation Xrotation
					JOINT LeftToeBase
					{
						OFFSET 0.157640 -0.433110 2.322550
						CHANNELS 3 Zrotation Yrotation Xrotation
						End Site
						{
							OFFSET 0.000000 0.000000 0.000000
						}
					}
				}
			}
		}
	}
	JOINT RHipJoint
	{
		OFFSET 0.000000 0.000000 0.000000
		CHANNELS 3 Zrotation Yrotation Xrotation
		JOINT RightUpLeg
		{
			OFFSET -1.305520 -1.794630 0.839290
			CHANNELS 3 Zrotation Yrotation Xrotation
			JOINT RightLeg
			{
				OFFSET -2.542530 -6.985550 0.000000
				CHANNELS 3 Zrotation Yrotation Xrotation
				JOINT RightFoot
				{
					OFFSET -2.568260 -7.056230 0.000000
					CHANNELS 3 Zrotation Yrotation Xrotation
					JOINT RightToeBase
					{
						OFFSET -0.164730 -0.452590 2.363150
						CHANNELS 3 Zrotation Yrotation Xrotation
						End Site
						{
							OFFSET 0.000000 0.000000 0.000000
						}
					}
				}
			}
		}
	}
	JOINT LowerBack
	{
		OFFSET 0.000000 0.000000 0.000000
		CHANNELS 3 Zrotation Yrotation Xrotation
		JOINT Spine
		{
			OFFSET 0.028270 2.035590 -0.193380
			CHANNELS 3 Zrotation Yrotation Xrotation
			JOINT Spine1
			{
				OFFSET 0.056720 2.048850 -0.042750
				CHANNELS 3 Zrotation Yrotation Xrotation
				JOINT Neck
				{
					OFFSET 0.000000 0.000000 0.000000
					CHANNELS 3 Zrotation Yrotation Xrotation
					JOINT Neck1
					{
						OFFSET -0.054170 1.746240 0.172020
						CHANNELS 3 Zrotation Yrotation Xrotation
						JOINT Head
						{
							OFFSET 0.104070 1.761360 -0.123970
							CHANNELS 3 Zrotation Yrotation Xrotation
							End Site
							{
								OFFSET 0.000000 0.000000 0.000000
							}
						}
					}
				}
				JOINT LeftShoulder
				{
					OFFSET 0.000000 0.000000 0.000000
					CHANNELS 3 Zrotation Yrotation Xrotation
					JOINT LeftArm
					{
						OFFSET 3.362410 1.200890 -0.311210
						CHANNELS 3 Zrotation Yrotation Xrotation
						JOINT LeftForeArm
						{
							OFFSET 4.983000 -0.000000 -0.000000
							CHANNELS 3 Zrotation Yrotation Xrotation
							JOINT LeftHand
							{
								OFFSET 3.483560 -0.000000 -0.000000
								CHANNELS 3 Zrotation Yrotation Xrotation
								JOINT LeftFingerBase
								{
									OFFSET 0.000000 0.000000 0.000000
									CHANNELS 3 Zrotation Yrotation Xrotation
									JOINT LeftHandIndex1
									{
										OFFSET 0.715260 -0.000000 -0.000000
										CHANNELS 3 Zrotation Yrotation Xrotation
										End Site
										{
											OFFSET 0.000000 0.000000 0.000000
										}
									}
								}
								JOINT LThumb
								{
									OFFSET 0.000000 0.000000 0.000000
									CHANNELS 3 Zrotation Yrotation Xrotation
									End Site
									{
										OFFSET 0.000000 0.000000 0.000000
									}
								}
							}
						}
					}
				}
				JOINT RightShoulder
				{
					OFFSET 0.000000 0.000000 0.000000
					CHANNELS 3 Zrotation Yrotation Xrotation
					JOINT RightArm
					{
						OFFSET -3.136600 1.374050 -0.404650
						CHANNELS 3 Zrotation Yrotation Xrotation
						JOINT RightForeArm
						{
							OFFSET -5.241900 -0.000000 -0.000000
							CHANNELS 3 Zrotation Yrotation Xrotation
							JOINT RightHand
							{
								OFFSET -3.444170 -0.000000 -0.000000
								CHANNELS 3 Zrotation Yrotation Xrotation
								JOINT RightFingerBase
								{
									OFFSET 0.000000 0.000000 0.000000
									CHANNELS 3 Zrotation Yrotation Xrotation
									JOINT RightHandIndex1
									{
										OFFSET -0.622530 -0.000000 -0.000000
										CHANNELS 3 Zrotation Yrotation Xrotation
										End Site
										{
											OFFSET 0.000000 0.000000 0.000000
										}
									}
								}
								JOINT RThumb
								{
									OFFSET 0.000000 0.000000 0.000000
									CHANNELS 3 Zrotation Yrotation Xrotation
									End Site
									{
										OFFSET 0.000000 0.000000 0.000000
									}
								}
							}
						}
					}
				}
			}
		}
	}
}
MOTION
Frames: 7
Frame Time: 0.008333
-13.698561 17.752452 9.077413 174.550638 -1.679291 -176.724079 -2.670143 1.684318 2.852169 -23.481855 -5.422867 -1.328799 -0.835253 3.921486 13.179643 0.900576 -11.237344 -1.363680 0.000300 0.118600 0.325800 0.364522 -0.975869 0.514991 10.531458 10.223530 -31.910128 -4.427896 -13.193198 39.894897 -0.500316 1.522586 -0.682465 -0.709600 5.383700 -15.006200 -2.719525 1.344270 9.828294 0.350901 1.232496 3.553424 -0.502703 0.466264 -1.953443 -13.313233 7.377138 -8.022225 4.227853 5.600515 36.952164 4.819100 -2.303500 18.542900 -6.001809 -1.234128 -1.459749 -85.340700 5.471794 12.985525 22.096643 -30.509642 -7.169063 -1.105816 -2.255662 3.070131 23.322897 22.628533 10.798300 -7.125000 0.000000 0.000000 -5.800800 56.934900 -1.700400 4.690692 0.706545 -1.056080 79.134888 -1.932922 18.862726 -27.946141 37.623664 -10.185737 0.345074 -0.047239 1.829312 -15.258470 9.194598 -2.561500 7.125000 0.000000 0.000000 8.115400 -20.460600 4.814500 
-13.709147 17.754450 9.177582 174.509906 -1.690501 -176.870201 -2.663976 1.662856 2.819361 -23.566167 -5.494142 -1.650207 -0.806643 4.033925 13.486405 0.896077 -11.267079 -1.245308 0.000000 0.021500 0.059100 0.350345 -0.980489 0.527436 10.477324 10.032902 -31.996926 -4.849757 -13.660365 41.653678 -0.413289 0.944733 -1.224300 -0.595700 4.941100 -13.740600 -2.737714 1.455588 9.916092 0.287521 1.366742 3.545913 -0.595662 0.540436 -2.023030 -13.033908 7.401395 -7.725835 4.129302 5.475052 36.992809 4.690000 -2.324200 18.505100 -5.976540 -1.231974 -1.458951 -85.128075 5.688077 12.777337 22.438403 -30.923583 -7.374759 -1.012733 -2.475993 4.535771 21.434765 26.651252 11.304500 -7.125000 0.000000 0.000000 -10.180100 60.834700 -3.952000 4.681438 0.702863 -1.055088 79.313051 -2.127924 18.757830 -27.888338 37.568824 -10.153148 0.333756 -0.042493 2.123001 -14.900569 8.921872 -2.423300 7.125000 0.000000 0.000000 8.386700 -20.764100 4.920800 
-13.719634 17.762439 9.279848 174.497362 -1.779789 -177.013774 -2.660671 1.646950 2.787358 -23.589106 -5.664988 -1.933816 -0.784000 4.129057 13.742318 0.891988 -11.332816 -1.084367 0.000200 0.079300 0.217800 0.331619 -0.986974 0.538513 10.489255 9.697468 -32.144145 -5.296983 -14.127198 43.459828 -0.275235 0.080969 -1.587661 -0.546100 4.734200 -13.152100 -2.738251 1.486768 10.088949 0.274331 1.394674 3.560370 -0.622527 0.557379 -2.091433 -13.002310 7.427457 -7.657769 4.099480 5.483416 37.037574 4.668100 -2.328500 18.514900 -5.997531 -1.225288 -1.454959 -85.049553 5.764979 12.663571 22.090246 -30.527037 -7.173229 -1.066954 -2.229893 2.099587 23.166263 21.806055 10.380500 -7.125000 0.000000 0.000000 -5.635100 55.995800 -1.523500 4.688789 0.702016 -1.057912 79.406223 -2.244410 18.762513 -27.837124 37.518897 -10.122339 0.327512 -0.041157 2.383909 -14.713727 8.800563 -2.358500 7.125000 0.000000 0.000000 8.528400 -20.899900 4.979400 
-13.730020 17.771128 9.378019 174.504143 -1.754923 -177.114490 -2.659745 1.630009 2.755776 -23.606577 -5.761131 -2.250316 -0.770598 4.194348 13.914511 0.879661 -11.312070 -0.847790 0.001700 0.267100 0.733900 0.310791 -0.991818 0.547156 10.532213 9.375478 -32.302702 -5.763826 -14.582213 45.288127 -0.150829 -0.683478 -1.967100 -0.495000 4.510900 -12.518500 -2.756551 1.468131 10.167639 0.299443 1.357020 3.635364 -0.551079 0.532555 -2.003922 -13.179421 7.496365 -7.797027 4.109313 5.689370 37.051491 4.737000 -2.275800 18.523700 -5.995830 -1.234180 -1.451816 -85.133265 5.549350 11.912104 22.277603 -30.745294 -7.264989 -1.005463 -2.476154 3.161359 21.808583 26.039094 11.314800 -7.125000 0.000000 0.000000 -9.327800 60.294700 -3.497700 4.693896 0.706669 -1.054583 79.322395 -2.067256 18.993389 -27.696047 37.389452 -10.034230 0.322683 -0.046327 2.654812 -14.549988 8.910462 -2.360800 7.125000 0.000000 0.000000 8.645700 -20.791500 5.070900 
-13.736212 17.774523 9.468900 174.598101 -1.592113 -177.229264 -2.659590 1.609634 2.725631 -23.519794 -5.770209 -2.651643 -0.753678 4.273252 14.121258 0.877678 -11.322498 -0.704888 0.002800 0.338900 0.931100 0.297349 -0.995363 0.558162 10.672953 9.305170 -32.286380 -6.232454 -15.002305 47.077801 -0.127284 -0.882085 -2.732345 -0.500400 4.535100 -12.587200 -2.695243 1.548947 10.213937 0.302504 1.461922 3.686272 -0.577459 0.584956 -1.943867 -13.105174 7.542460 -7.878585 4.000210 5.765409 37.140341 4.680100 -2.259000 18.601000 -5.989004 -1.243124 -1.448420 -85.037665 5.504965 11.582374 22.402280 -30.898458 -7.333436 -0.956302 -2.612420 4.053086 20.655602 28.533062 11.510500 -7.125000 0.000000 0.000000 -12.439500 62.626200 -5.370900 4.701959 0.700539 -1.053740 79.363836 -1.925326 19.124669 -27.446586 37.151230 -9.872352 0.324745 -0.052765 2.811387 -14.647433 9.064456 -2.419400 7.125000 0.000000 0.000000 8.569700 -20.624000 5.058000 
-13.743303 17.776820 9.563276 174.609186 -1.579377 -177.384151 -2.659536 1.583185 2.684641 -23.524059 -5.886651 -3.069311 -0.723583 4.390487 14.433423 0.891836 -11.486251 -0.753193 0.000200 -0.087700 -0.241000 0.289528 -0.997021 0.574195 10.709006 9.077600 -32.170970 -6.690683 -15.386769 48.784809 -0.168892 -0.715733 -3.438015 -0.653200 5.169500 -14.392700 -2.650337 1.649527 10.279115 0.251275 1.587146 3.721460 -0.700779 0.652209 -1.921363 -12.799226 7.545719 -7.825916 3.868545 5.675338 37.230599 4.544000 -2.267800 18.670800 -6.004030 -1.240850 -1.440634 -84.766056 5.633024 11.753396 22.069782 -30.527996 -7.146038 -1.018310 -2.358344 2.360535 22.287514 23.893635 10.768700 -7.125000 0.000000 0.000000 -7.576200 58.093200 -2.436300 4.715095 0.688988 -1.055182 79.597272 -1.951328 18.986186 -27.221435 36.930761 -9.723880 0.330123 -0.058891 2.911060 -14.882092 9.215670 -2.501800 7.125000 0.000000 0.000000 8.393700 -20.452300 4.984700 
-13.750693 17.777819 9.661648 174.622817 -1.662318 -177.522347 -2.652037 1.561136 2.644145 -23.520294 -6.043927 -3.448697 -0.681781 4.542092 14.846071 0.896528 -11.606599 -0.683161 0.004000 -0.407700 -1.120300 0.281533 -0.999429 0.592022 10.732292 8.715214 -32.017641 -7.129877 -15.730506 50.380915 -0.212618 -0.463371 -3.517418 -0.826800 5.801200 -16.208800 -2.562901 1.756386 10.348235 0.176262 1.728972 3.726759 -0.882462 0.729848 -1.954177 -12.560743 7.514592 -7.575457 3.920989 5.471829 37.257106 4.497200 -2.300500 18.638200 -6.005014 -1.228048 -1.435597 -84.420200 5.779558 12.023757 21.995070 -30.459539 -7.104494 -1.015107 -2.371233 2.111337 22.314644 24.045878 10.845100 -7.125000 0.000000 0.000000 -7.613300 58.265200 -2.479900 4.714775 0.694819 -1.051621 79.926716 -2.153500 18.628293 -27.097236 36.810095 -9.642527 0.329922 -0.068590 3.070908 -14.926964 9.479581 -2.582900 7.125000 0.000000 0.000000 8.355000 -20.171100 5.014500 
